<svg xmlns="http://www.w3.org/2000/svg" viewBox="0 0 1400 560" width="1400" height="560">
  <defs>
    <linearGradient id="bg" x1="0" y1="0" x2="1" y2="1">
      <stop offset="0" stop-color="#2c3448"/>
      <stop offset="1" stop-color="#181d2b"/>
    </linearGradient>
    <linearGradient id="green" x1="0" y1="0" x2="0" y2="1">
      <stop offset="0" stop-color="#a3e58e"/>
      <stop offset="1" stop-color="#6fb85c"/>
    </linearGradient>
    <pattern id="dots" width="30" height="30" patternUnits="userSpaceOnUse">
      <circle cx="15" cy="15" r="2.4" fill="#ffffff" opacity="0.10"/>
    </pattern>
  </defs>

  <rect width="1400" height="560" fill="url(#bg)"/>
  <rect width="1400" height="560" fill="url(#dots)"/>
  <ellipse cx="1020" cy="290" rx="330" ry="240" fill="#a3e58e" opacity="0.05"/>

  <text x="90" y="232" font-family="PingFang SC, Helvetica, Arial, sans-serif" font-size="66" font-weight="bold" fill="#ffffff" letter-spacing="1">Better-Bookmarks</text>
  <text x="92" y="292" font-family="PingFang SC, Helvetica, Arial, sans-serif" font-size="30" fill="#c3cad6" letter-spacing="2">无限画布 · 平铺书签管理器</text>

  <g font-family="PingFang SC, Helvetica, Arial, sans-serif" font-size="20" fill="#e6eaf2">
    <rect x="90" y="330" width="150" height="46" rx="23" fill="#ffffff" opacity="0.08"/>
    <circle cx="116" cy="353" r="5.5" fill="#f2795c"/>
    <text x="132" y="360">无限画布</text>
    <rect x="256" y="330" width="150" height="46" rx="23" fill="#ffffff" opacity="0.08"/>
    <circle cx="282" cy="353" r="5.5" fill="#5e9bf0"/>
    <text x="298" y="360">自由布局</text>
    <rect x="422" y="330" width="150" height="46" rx="23" fill="#ffffff" opacity="0.08"/>
    <circle cx="448" cy="353" r="5.5" fill="#f2b144"/>
    <text x="464" y="360">高效管理</text>
  </g>

  <g transform="translate(812,78) scale(3.3)">
    <g transform="rotate(-7 40 40)">
      <rect x="21" y="32" width="38" height="24" rx="6" fill="#000000" opacity="0.35"/>
      <rect x="19" y="29" width="38" height="24" rx="6" fill="#eef1f6"/>
      <circle cx="27" cy="37" r="3.4" fill="#f2795c"/>
      <rect x="33" y="34.5" width="17" height="3.4" rx="1.7" fill="#c3cad6"/>
      <rect x="25" y="43.5" width="24" height="3" rx="1.5" fill="#dde2ea"/>
    </g>
    <g transform="rotate(5 88 36)">
      <rect x="69" y="25" width="40" height="26" rx="6" fill="#000000" opacity="0.35"/>
      <rect x="67" y="22" width="40" height="26" rx="6" fill="#eef1f6"/>
      <circle cx="75" cy="30.5" r="3.4" fill="#5e9bf0"/>
      <rect x="81" y="28" width="19" height="3.4" rx="1.7" fill="#c3cad6"/>
      <rect x="73" y="37" width="26" height="3" rx="1.5" fill="#dde2ea"/>
    </g>
    <g transform="rotate(-4 30 86)">
      <rect x="18" y="78" width="26" height="20" rx="5" fill="#000000" opacity="0.35"/>
      <rect x="16.5" y="75.5" width="26" height="20" rx="5" fill="#eef1f6"/>
      <circle cx="23" cy="82" r="2.8" fill="#f2b144"/>
      <rect x="28" y="80" width="11" height="3" rx="1.5" fill="#c3cad6"/>
    </g>
    <g transform="rotate(-3 79 84)">
      <rect x="54" y="64" width="54" height="46" rx="10" fill="#000000" opacity="0.40"/>
      <rect x="51" y="60" width="54" height="46" rx="10" fill="url(#green)"/>
      <path d="M69 71 q0 -4 4 -4 h10 q4 0 4 4 v27 l-9 -7 -9 7 z" fill="#ffffff"/>
    </g>
  </g>
</svg>
